# xmcd
# 
# Track frame offsets:
#     150
#     19613
#     38475
#     55312
# 
# Disc length: 967
# 
# Revision: 0
# Processed by: cddbd v1.5.2PL0 Copyright (c) Steve Scherf et al.
# Submitted via: BonkEnc v1.0.8
# 
DISCID=2503c504
DTITLE=Lunavelis - The End of the World LP
DYEAR=2008
DGENRE=
TTITLE0=The Rest of the World
TTITLE1=Mr Hyde
TTITLE2=Lexicon
TTITLE3=California
EXTD=
EXTT0=
EXTT1=
EXTT2=
EXTT3=
PLAYORDER=
